<svg width="93" height="111" viewBox="0 0 93 111" fill="none" xmlns="http://www.w3.org/2000/svg">
<path d="M92.6794 23.569C91.672 17.2255 88.6556 11.4068 84.1852 7.17971C79.2169 2.47974 72.7776 0 65.5484 0C65.3652 0 65.1878 0 65.0046 0C52.9502 0.207606 44.8624 6.57996 40.2776 19.4804L40.0028 20.2531H47.0088L47.1519 19.8898C50.8094 10.7551 56.6478 6.31468 65.0046 6.31468C65.6857 6.31468 66.3898 6.34352 67.1053 6.40119C79.4917 7.41038 85.8795 17.4562 86.5721 26.366C87.1216 33.4361 84.1395 39.9988 78.3011 44.0009C71.6386 48.5683 63.774 48.1473 56.0582 48.1473C56.0582 48.1473 55.7091 48.1473 55.2626 48.1473L46.7913 26.9657H39.8425L28.2689 55.8979C24.4969 56.3247 21.1198 57.034 18.0575 58.0432C3.37586 62.8931 -1.41501 76.301 0.34794 87.4367C1.34962 93.7802 4.36609 99.599 8.84214 103.826C13.8047 108.52 20.2498 111 27.4733 111C27.6565 111 27.8339 111 28.0171 111C46.9344 110.677 52.4923 95.072 55.0222 83.3653L55.171 82.6676H48.4283L48.3253 83.1116C45.9384 93.1574 41.4738 104.685 28.0113 104.685C27.3302 104.685 26.6262 104.656 25.9107 104.599C13.5243 103.59 7.13643 93.5438 6.44385 84.634C5.47651 72.2123 14.4115 65.5458 22.3562 63.6082C23.3063 63.3775 24.3309 63.1757 25.4299 63.0027L20.2212 76.0299H27.9884L33.2429 62.4721H47.0374L44.33 55.4827H35.9446L41.3422 41.5962L43.2024 35.8063L45.0169 41.625L50.9068 56.7802L53.036 62.2876L58.3592 76.0242H66.4127L57.97 54.9176C61.4157 54.7734 64.8615 54.56 68.2844 54.1794C75.7368 53.349 82.3593 50.7193 87.1559 44.6757C91.8209 38.7993 93.8471 30.991 92.6737 23.5633L92.6794 23.569Z" fill="#FE6A3A"/>
</svg>
