<svg width="72" height="85" viewBox="0 0 72 85" fill="none" xmlns="http://www.w3.org/2000/svg">
<path d="M71.7518 18.0101C70.9719 13.1628 68.6366 8.71644 65.1757 5.48633C61.3292 1.89488 56.3439 0 50.7471 0C50.6053 0 50.4679 0 50.3261 0C40.9937 0.158641 34.7322 5.02803 31.1826 14.8858L30.9699 15.4763H36.3939L36.5047 15.1987C39.3363 8.21848 43.8563 4.82533 50.3261 4.82533C50.8535 4.82533 51.3985 4.84736 51.9525 4.89143C61.5419 5.6626 66.4874 13.3391 67.0236 20.1474C67.449 25.55 65.1402 30.5648 60.6202 33.6231C55.4621 37.1132 49.3734 36.7915 43.3999 36.7915C43.3999 36.7915 43.1296 36.7915 42.784 36.7915L36.2255 20.6057H30.8458L21.8856 42.7141C18.9653 43.0402 16.3508 43.5822 13.98 44.3533C2.61357 48.0594 -1.09549 58.3049 0.269373 66.8142C1.04486 71.6616 3.3802 76.108 6.84553 79.3381C10.6875 82.9251 15.6773 84.82 21.2696 84.82C21.4114 84.82 21.5488 84.82 21.6906 84.82C36.3363 84.5732 40.6392 72.6487 42.5978 63.7031L42.713 63.1699H37.4929L37.4131 63.5092C35.5652 71.1857 32.1088 79.9947 21.6862 79.9947C21.1589 79.9947 20.6138 79.9726 20.0599 79.9286C10.4704 79.1574 5.52498 71.4809 4.98878 64.6726C4.23988 55.1806 11.1573 50.0865 17.308 48.6058C18.0436 48.4295 18.8368 48.2753 19.6876 48.1431L15.6551 58.0978H21.6685L25.7365 47.7377H36.4161L34.32 42.3968H27.8281L32.0069 31.7855L33.4471 27.3611L34.8518 31.8075L39.4117 43.3883L41.0602 47.5967L45.1813 58.0934H51.4163L44.88 41.9649C47.5477 41.8548 50.2154 41.6917 52.8653 41.4009C58.635 40.7663 63.7621 38.7569 67.4756 34.1386C71.0871 29.6482 72.6558 23.6816 71.7474 18.0057L71.7518 18.0101Z" fill="#FE6A3A"/>
</svg>
