<svg width="117" height="138" viewBox="0 0 117 138" fill="none" xmlns="http://www.w3.org/2000/svg">
<path d="M70.2552 68.2579C75.3305 68.0724 80.3925 67.8073 85.4281 67.2508C94.7438 66.2172 103.026 62.9573 109.029 55.4571C114.859 48.1555 117.404 38.4688 115.933 29.2458C114.674 21.3745 110.897 14.1525 105.305 8.90493C99.0903 3.07432 91.0334 0 81.996 0H81.3201C66.2401 0.251776 56.1293 8.16285 50.3914 24.1838L50.0469 25.1379H58.806L58.9916 24.6873C63.5633 13.3441 70.8648 7.83157 81.3201 7.83157C91.7755 7.83157 83.0561 7.87132 83.9439 7.93758C99.4348 9.19646 107.425 21.666 108.287 32.7177C108.976 41.4901 105.239 49.6397 97.9374 54.609C89.6023 60.2806 79.7697 59.7505 70.1227 59.7505H66.4918L70.2552 68.2446V68.2579Z" fill="#F4F1DE"/>
<path d="M34.3703 137.788C25.3328 137.788 17.276 134.714 11.0611 128.883C5.46902 123.636 1.69238 116.401 0.433495 108.543C-1.76624 94.7213 4.22339 78.0643 22.5898 72.0482C28.1554 70.2195 34.5426 69.1859 42.1091 68.8679L43.1957 68.8281L39.9889 77.4018L39.5251 77.4283C34.9136 77.6933 31.137 78.1969 27.9831 78.9654C18.0446 81.3772 6.87367 89.6461 8.07954 105.071C8.94088 116.136 16.9315 128.605 32.4223 129.851C33.3234 129.917 34.198 129.957 35.0461 129.957C51.8886 129.957 57.4675 115.645 60.449 103.176L60.5815 102.619H69.0094L68.8239 103.48C65.6568 118.017 58.7131 137.391 35.0461 137.788H34.357H34.3703Z" fill="#F4F1DE"/>
<path d="M73.0112 94.3623L66.359 77.3078L63.6955 70.4833L56.3277 51.6664L54.0485 44.4444L51.7162 51.6266L44.3352 70.4833L41.6717 77.3078L35.0195 94.3623H25.293L49.8478 33.459H58.5275L83.069 94.3623H72.998H73.0112Z" fill="#F4F1DE"/>
<path d="M39.2461 77.5336L42.6252 68.8672H55.4525L58.8449 77.5336H39.2461Z" fill="#F4F1DE"/>
</svg>
