<?xml version="1.0" encoding="UTF-8"?>
<svg version="1.1" xmlns="http://www.w3.org/2000/svg" width="494" height="132">
<path d="M0 0 C163.02 0 326.04 0 494 0 C494 43.56 494 87.12 494 132 C330.98 132 167.96 132 0 132 C0 88.44 0 44.88 0 0 Z " fill="#F4EFDC" transform="translate(0,0)"/>
<path d="M0 0 C6.77030723 4.29103979 10.3121119 9.52431122 13 17 C13 22.28 13 27.56 13 33 C-1.85 33 -16.7 33 -32 33 C-29.32308522 43.10624654 -29.32308522 43.10624654 -22.20703125 49.10546875 C-16.76889375 51.30959882 -10.02526421 50.66281374 -4.5625 48.875 C-0.89385462 46.19062533 1.94416083 43.11167834 4 39 C7.48872415 40.16290805 8.09976864 41.13967609 10.1875 44.0625 C10.71730469 44.79597656 11.24710937 45.52945313 11.79296875 46.28515625 C12.19128906 46.85105469 12.58960938 47.41695312 13 48 C7.57948318 55.23333867 1.08168834 60.32441175 -8 62 C-18.98940587 62.83481165 -26.52056796 61.68739541 -35.25 54.9375 C-41.20890592 49.44246101 -44.63662058 41.15719257 -45.203125 33.1171875 C-45.36314584 22.04907931 -43.85267765 13.20481566 -36 5 C-25.69262517 -4.0947425 -12.68236628 -6.08058657 0 0 Z " fill="#FC6B3C" transform="translate(254,44)"/>
<path d="M0 0 C5.95965 4.02617577 8.88907961 9.10410116 10.8125 15.9375 C10.97451097 18.6505741 11.04703053 21.25305684 11.0078125 23.9609375 C11.0049826 24.70711334 11.00215271 25.45328918 10.99923706 26.22207642 C10.98811687 28.58571988 10.96302821 30.94897268 10.9375 33.3125 C10.92745962 34.92317158 10.91833562 36.53384915 10.91015625 38.14453125 C10.8882044 42.07566944 10.85373185 46.00651867 10.8125 49.9375 C13.1225 49.9375 15.4325 49.9375 17.8125 49.9375 C17.8125 53.8975 17.8125 57.8575 17.8125 61.9375 C6.8583302 62.42435199 6.8583302 62.42435199 2.1875 60.25 C-0.25442589 57.87233532 -1.28197999 56.19737205 -2.1875 52.9375 C-2.61160156 53.40800781 -3.03570312 53.87851563 -3.47265625 54.36328125 C-9.11294969 60.35066967 -13.8175496 63.04145279 -22.1875 63.375 C-27.7639971 63.21467571 -30.81039503 62.4027081 -35.1875 58.9375 C-38.39627339 55.48189789 -39.4937822 52.68036684 -39.8125 48.0625 C-39.5988732 43.32710602 -38.16315704 40.51466081 -35.28125 36.82421875 C-29.16209794 31.3101321 -21.71555585 28.24524935 -14.1875 25.125 C-12.73923828 24.51495117 -12.73923828 24.51495117 -11.26171875 23.89257812 C-8.90615268 22.90137458 -6.54815067 21.91651714 -4.1875 20.9375 C-3.8676663 16.76646904 -3.8676663 16.76646904 -5.5 13.125 C-10.0521308 9.92164869 -15.88106683 10.27790146 -21.1875 10.9375 C-25.97949368 13.01460517 -28.90880203 16.246063 -31.1875 20.9375 C-35.02440637 19.37431592 -37.57904889 17.1421685 -40.1875 13.9375 C-40.00837762 10.98669449 -39.53951727 9.37958957 -37.69140625 7.05859375 C-27.56574969 -1.72240822 -12.74473312 -6.43630335 0 0 Z " fill="#FC6C3D" transform="translate(429.1875,43.0625)"/>
<path d="M0 0 C4.29 0 8.58 0 13 0 C16.41561975 6.54545481 19.20335023 13.24862369 21.921875 20.109375 C22.38555481 21.27140442 22.84923462 22.43343384 23.32696533 23.63067627 C24.55604059 26.71262361 25.78212996 29.79572333 27.00671387 32.87945557 C28.226019 35.94794336 29.44913072 39.01491262 30.671875 42.08203125 C32.56462188 46.83028276 34.45411193 51.5798123 36.34179688 56.33007812 C38.04418777 60.60994371 39.75817768 64.88476912 41.48632812 69.15429688 C41.86331848 70.08783997 42.24030884 71.02138306 42.62872314 71.98321533 C43.32565806 73.70700385 44.02532417 75.42969162 44.72821045 77.15106201 C47 82.77740301 47 82.77740301 47 85 C42.38 85 37.76 85 33 85 C32.52691406 83.80213867 32.05382812 82.60427734 31.56640625 81.37011719 C29.77012945 76.82225629 27.97327606 72.27462338 26.17626953 67.72705078 C25.40626138 65.77821736 24.63639892 63.82932636 23.86669922 61.88037109 C23.11893814 59.98702049 22.37097226 58.09375076 21.62280273 56.20056152 C20.87317823 54.30368064 20.12399326 52.406626 19.37524414 50.50939941 C17.49899288 45.76177948 15.60795285 41.02094451 13.6875 36.29101562 C13.31947266 35.38176331 12.95144531 34.47251099 12.57226562 33.53570557 C11.8767958 31.82011041 11.17778825 30.1059435 10.47460938 28.39349365 C8.94454894 24.61437506 7.5877785 21.06342708 7 17 C4.39437736 23.44122863 1.84641488 29.90529175 -0.6875 36.375 C-0.99695557 37.15987793 -1.30641113 37.94475586 -1.62524414 38.75341797 C-1.91778076 39.50252441 -2.21031738 40.25163086 -2.51171875 41.0234375 C-2.77428467 41.69294434 -3.03685059 42.36245117 -3.30737305 43.05224609 C-3.99801141 44.99440784 -4.50006038 47.00024152 -5 49 C-0.38 49 4.24 49 9 49 C13 58.75 13 58.75 13 61 C5.08 61 -2.84 61 -11 61 C-11.99 64.3 -12.98 67.6 -14 71 C-15.01755894 73.55999014 -16.0755481 76.1045757 -17.1875 78.625 C-17.59645508 79.55892578 -17.59645508 79.55892578 -18.01367188 80.51171875 C-18.67064373 82.01007562 -19.33453502 83.50539581 -20 85 C-24.29 85 -28.58 85 -33 85 C-32.14942271 79.89653624 -30.87519268 75.80157814 -28.89453125 71.11328125 C-28.57845413 70.35028214 -28.26237701 69.58728302 -27.9367218 68.80116272 C-27.25536999 67.15796822 -26.57123142 65.51592701 -25.88458252 63.87493896 C-24.06016674 59.51431 -22.25609726 55.14526142 -20.44921875 50.77734375 C-20.07958008 49.88537292 -19.70994141 48.9934021 -19.32910156 48.07440186 C-15.52014283 38.87087048 -11.81249927 29.6277352 -8.125 20.375 C-7.82695465 19.62779694 -7.5289093 18.88059387 -7.22183228 18.11074829 C-5.89926001 14.79492547 -4.57800243 11.47858784 -3.25830078 8.16162109 C-2.17508856 5.43992954 -1.08792454 2.71981136 0 0 Z " fill="#FC6B3D" transform="translate(102,20)"/>
<path d="M0 0 C6.428889 3.49102194 11.14543932 7.47696774 13.9375 14.375 C9.4825 17.84 9.4825 17.84 4.9375 21.375 C2.7499008 19.1874008 0.5711086 16.99028903 -1.5625 14.75 C-5.27161369 11.22634199 -7.9466377 10.08589571 -13.0625 10.0625 C-13.908125 10.04574219 -14.75375 10.02898438 -15.625 10.01171875 C-18.51580535 10.44255993 -19.89076275 11.46970274 -22.0625 13.375 C-22.04123538 16.78114946 -22.04123538 16.78114946 -21.0625 20.375 C-16.85992517 22.98110121 -12.5936938 24.11971778 -7.8125 25.25 C-0.25700106 27.16163226 7.27731479 29.45764401 13.0625 34.9375 C15.85546014 40.05792693 15.76459867 44.66955085 14.9375 50.375 C13.30567524 55.24443453 10.26524791 58.6575769 5.9375 61.375 C0.95278043 63.07336079 -3.6968609 63.762625 -8.9375 63.75 C-9.63858887 63.74838867 -10.33967773 63.74677734 -11.06201172 63.74511719 C-16.90208045 63.60725859 -21.13878958 62.41797983 -26.0625 59.375 C-27.67125 58.50875 -27.67125 58.50875 -29.3125 57.625 C-32.82793584 54.74873431 -35.15052372 51.49505508 -37.0625 47.375 C-37.0625 46.385 -37.0625 45.395 -37.0625 44.375 C-35.3828125 42.76953125 -35.3828125 42.76953125 -33.1875 41.1875 C-32.46820313 40.65769531 -31.74890625 40.12789062 -31.0078125 39.58203125 C-29.0625 38.375 -29.0625 38.375 -27.0625 38.375 C-25.53801369 41.3576906 -24.12309933 44.193202 -23.0625 47.375 C-20.7194191 48.49585312 -20.7194191 48.49585312 -18.0625 49.375 C-17.47082031 49.72046875 -16.87914062 50.0659375 -16.26953125 50.421875 C-13.4228233 51.65124976 -11.15374716 51.60500465 -8.0625 51.5625 C-7.03125 51.55605469 -6 51.54960938 -4.9375 51.54296875 C-2.48181318 51.39949792 -0.40742245 51.0796041 1.9375 50.375 C2.70272801 47.02041845 2.70272801 47.02041845 2.9375 43.375 C-1.16564351 37.95160211 -9.39363874 37.2882489 -15.625 36 C-23.62058749 34.2065972 -29.38836542 31.29271917 -34.0625 24.375 C-36.19623657 20.10752686 -35.713127 14.56110671 -34.37890625 10.078125 C-32.22394111 5.32110652 -29.72867776 2.90251295 -25.0625 0.375 C-24.49917969 0.01921875 -23.93585938 -0.3365625 -23.35546875 -0.703125 C-16.79713136 -3.33986712 -6.48962639 -2.69465456 0 0 Z " fill="#FC6B3D" transform="translate(316.0625,42.625)"/>
<path d="M0 0 C4.62 0 9.24 0 14 0 C15.95747677 5.72907011 17.91466228 11.4582396 19.87158203 17.1875 C20.5368672 19.13511828 21.2022309 21.08270973 21.86767578 23.03027344 C22.82605479 25.8352153 23.78414811 28.64025462 24.7421875 31.4453125 C25.03809784 32.31116974 25.33400818 33.17702698 25.6388855 34.06912231 C27.10890138 38.37411222 28.56882074 42.68189262 30 47 C34.09569811 37.5298426 37.1047737 27.68840523 40.25 17.875 C40.80957528 16.13791754 41.36946851 14.40093747 41.9296875 12.6640625 C43.29012783 8.44388016 44.64625497 4.22233457 46 0 C50.62 0 55.24 0 60 0 C59.25628705 3.71856475 58.44141997 6.8304545 57.17407227 10.35351562 C56.80020889 11.39809937 56.42634552 12.44268311 56.04115295 13.5189209 C55.63698654 14.6367395 55.23282013 15.75455811 54.81640625 16.90625 C54.40083969 18.06370728 53.98527313 19.22116455 53.55711365 20.41369629 C52.67862436 22.85857877 51.79846179 25.30286056 50.91674805 27.74658203 C49.56799556 31.48476858 48.22396279 35.22462427 46.88085938 38.96484375 C46.02631594 41.34124448 45.17150711 43.71754979 44.31640625 46.09375 C43.91426407 47.2115686 43.51212189 48.32938721 43.09779358 49.4810791 C42.72077805 50.52566284 42.34376251 51.57024658 41.95532227 52.64648438 C41.62524673 53.5618396 41.2951712 54.47719482 40.95509338 55.42028809 C40.01355536 57.96338692 39.0071363 60.48215926 38 63 C32.72 63 27.44 63 22 63 C21.5467334 61.72060547 21.0934668 60.44121094 20.62646484 59.12304688 C18.91699477 54.29912081 17.20559093 49.47588255 15.49365234 44.65283203 C14.75811256 42.57977205 14.02307198 40.50653487 13.28857422 38.43310547 C12.22239759 35.42366558 11.15471981 32.41476545 10.0859375 29.40625 C9.73819275 28.4272876 9.390448 27.4483252 9.03216553 26.43969727 C6.67117393 19.81819344 4.24495818 13.22449446 1.7071228 6.6685791 C0 2.21050793 0 2.21050793 0 0 Z " fill="#FC6B3D" transform="translate(144,42)"/>
<path d="M0 0 C0 5.28 0 10.56 0 16 C6.6 16 13.2 16 20 16 C20 19.3 20 22.6 20 26 C13.4 26 6.8 26 0 26 C0.07409997 31.03624266 0.15701416 36.07074118 0.26245117 41.10620117 C0.29564169 42.81802238 0.32369189 44.52995148 0.34643555 46.24194336 C0.38009032 48.70733479 0.43240974 51.17174281 0.48828125 53.63671875 C0.49467117 54.39836838 0.5010611 55.16001801 0.50764465 55.94474792 C0.63052819 60.41685206 1.12556446 63.49607628 4 67 C7.45863168 67.60150116 9.46006156 67.22602074 12.6875 65.875 C15.50843723 63.58775359 16.59992566 61.31596554 18 58 C21.25043538 61.84142363 22.54443197 65.66521385 23.5 70.5625 C22.85806042 73.69195546 21.25367612 74.94088225 18.80078125 76.88671875 C12.54424085 80.75464503 6.16644766 80.73108597 -1 80 C-6.29170434 77.49340321 -9.80853574 73.81720053 -12.09716797 68.40576172 C-13.22757205 64.14152784 -13.25041735 60.27147007 -13.1953125 55.8828125 C-13.1924826 55.02565643 -13.18965271 54.16850037 -13.18673706 53.28536987 C-13.17559999 50.56510068 -13.1505076 47.84516859 -13.125 45.125 C-13.11496182 43.27344228 -13.10583744 41.42187936 -13.09765625 39.5703125 C-13.07568188 35.0467464 -13.041197 30.52343023 -13 26 C-15.97 26 -18.94 26 -22 26 C-22 22.7 -22 19.4 -22 16 C-19.03 16 -16.06 16 -13 16 C-13.2475 14.845 -13.495 13.69 -13.75 12.5 C-13.79296875 10.3125 -13.79296875 10.3125 -13 8 C-3.87837838 0 -3.87837838 0 0 0 Z " fill="#FC6B3D" transform="translate(360,26)"/>
<path d="M0 0 C4.2476977 2.22542423 6.70647012 5.09671268 8.859375 9.31640625 C8.859375 10.96640625 8.859375 12.61640625 8.859375 14.31640625 C-2.030625 14.31640625 -12.920625 14.31640625 -24.140625 14.31640625 C-20.74612959 4.13292001 -20.74612959 4.13292001 -15.140625 0.31640625 C-10.77242648 -1.86769301 -4.57770514 -1.46185839 0 0 Z " fill="#F4EDD9" transform="translate(246.140625,52.68359375)"/>
<path d="M0 0 C0.3221077 6.03653699 0.56806924 10.83245145 -3 16 C-7.18523654 19.8713438 -10.35302249 21.14916112 -16 21.25 C-16.86625 21.27578125 -17.7325 21.3015625 -18.625 21.328125 C-21 21 -21 21 -22.7734375 19.62890625 C-24 18 -24 18 -24.625 15.6875 C-23.59980853 11.2791767 -20.64355542 9.32472248 -17 7 C-3.93621399 0 -3.93621399 0 0 0 Z " fill="#F4ECD9" transform="translate(427,74)"/>
</svg>
