<?xml version="1.0" encoding="UTF-8"?>
<svg version="1.1" xmlns="http://www.w3.org/2000/svg" width="247" height="175">
<path d="M0 0 C81.51 0 163.02 0 247 0 C247 57.75 247 115.5 247 175 C165.49 175 83.98 175 0 175 C0 117.25 0 59.5 0 0 Z " fill="#F4EFDC" transform="translate(0,0)"/>
<path d="M0 0 C8.32435838 5.99001449 13.61505177 14.53584964 16.3125 24.375 C17.84975572 35.32326025 15.64220384 45.13613541 9.328125 54.234375 C2.15008716 62.83783879 -6.56163763 67.30580153 -17.6875 68.375 C-22.360056 68.51644481 -27.0147973 68.49619402 -31.6875 68.375 C-30.81351563 70.06689453 -30.81351563 70.06689453 -29.921875 71.79296875 C-27.65621477 76.32728612 -25.76213632 80.96145699 -23.9375 85.6875 C-23.62167969 86.48478516 -23.30585938 87.28207031 -22.98046875 88.10351562 C-22.68269531 88.86986328 -22.38492188 89.63621094 -22.078125 90.42578125 C-21.81032227 91.11325439 -21.54251953 91.80072754 -21.26660156 92.5090332 C-20.6875 94.375 -20.6875 94.375 -20.6875 97.375 C-23.9875 97.375 -27.2875 97.375 -30.6875 97.375 C-33.37014251 91.41784151 -35.92049157 85.43389986 -38.32421875 79.359375 C-38.64912796 78.54051819 -38.97403717 77.72166138 -39.30879211 76.87799072 C-39.98788503 75.1641806 -40.66595015 73.44996289 -41.34301758 71.73535156 C-42.37853652 69.11605453 -43.42060287 66.49942218 -44.46289062 63.8828125 C-45.12540149 62.20849214 -45.78752462 60.5340183 -46.44921875 58.859375 C-46.75961594 58.0822113 -47.07001312 57.30504761 -47.38981628 56.5043335 C-48.84019917 52.81250524 -50.09130873 49.32091561 -50.6875 45.375 C-51.3475 45.375 -52.0075 45.375 -52.6875 45.375 C-52.84605469 45.94605469 -53.00460938 46.51710937 -53.16796875 47.10546875 C-55.25703464 54.36526126 -57.90396302 61.35564587 -60.6875 68.375 C-57.0575 68.705 -53.4275 69.035 -49.6875 69.375 C-46.6875 76 -46.6875 76 -46.6875 79.375 C-52.9575 79.375 -59.2275 79.375 -65.6875 79.375 C-66.6775 82.345 -67.6675 85.315 -68.6875 88.375 C-69.93733582 91.42225857 -71.3096012 94.38163365 -72.6875 97.375 C-75.9875 97.375 -79.2875 97.375 -82.6875 97.375 C-80.99858451 91.50400806 -79.22380629 85.93071853 -76.6875 80.375 C-86.10093231 82.83067799 -93.03870901 86.19105884 -98.6875 94.375 C-101.93939756 100.88985599 -101.87416765 109.14214425 -99.9296875 116.078125 C-98.97687633 118.28384536 -97.9153572 120.31151776 -96.6875 122.375 C-96.11 123.4475 -95.5325 124.52 -94.9375 125.625 C-90.27644965 131.32183932 -83.54716916 134.87440017 -76.22265625 135.62890625 C-68.67852571 135.95691193 -61.95540642 134.73504036 -55.90625 129.97265625 C-49.82601385 123.62873639 -47.35838665 114.54548508 -44.6875 106.375 C-41.7175 106.375 -38.7475 106.375 -35.6875 106.375 C-37.45291665 117.28848474 -40.73212219 129.83694446 -49.7578125 137.0234375 C-57.45317913 142.37106516 -63.71898254 144.92932874 -73.0625 144.8125 C-73.90594971 144.80492676 -74.74939941 144.79735352 -75.6184082 144.78955078 C-81.73739809 144.62701048 -86.54502759 143.88321211 -91.6875 140.375 C-92.72390625 139.72144531 -92.72390625 139.72144531 -93.78125 139.0546875 C-102.99352452 132.76421647 -107.79474486 124.04357985 -110.6875 113.375 C-112.09590801 102.65249751 -109.61883054 93.16272024 -103.3515625 84.41015625 C-97.03540414 76.68546492 -88.55227349 71.90472631 -78.6875 70.375 C-76.32327901 70.24041436 -74.05831349 70.2762161 -71.6875 70.375 C-71.58767822 69.71798096 -71.48785645 69.06096191 -71.38500977 68.3840332 C-70.48199874 64.4884746 -69.03225683 60.92825446 -67.52734375 57.23046875 C-67.21801407 56.46068192 -66.90868439 55.69089508 -66.58998108 54.89778137 C-65.60570532 52.45103234 -64.6154469 50.00675656 -63.625 47.5625 C-62.95468129 45.89924842 -62.284755 44.23583863 -61.61523438 42.57226562 C-59.97719625 38.50466374 -58.33379005 34.43926867 -56.6875 30.375 C-53.3875 30.375 -50.0875 30.375 -46.6875 30.375 C-45.1140274 34.01993255 -43.54765756 37.66782581 -41.98779297 41.31860352 C-41.45620727 42.55999721 -40.92269155 43.8005663 -40.38720703 45.0402832 C-39.61764157 46.82284809 -38.8555931 48.60865229 -38.09375 50.39453125 C-37.63291016 51.46807861 -37.17207031 52.54162598 -36.69726562 53.64770508 C-35.6875 56.375 -35.6875 56.375 -35.6875 59.375 C-16.56193966 58.78415044 -16.56193966 58.78415044 0.3125 50.375 C6.45345447 42.85233077 6.99687273 35.79914912 6.3125 26.375 C5.13059432 18.79208036 1.08106783 13.31384232 -4.6875 8.375 C-12.13143546 3.49974649 -21.05900458 3.3108189 -29.6875 4.375 C-36.73475418 7.33785983 -40.75113878 11.90812085 -44.6875 18.375 C-45.1825 19.86 -45.1825 19.86 -45.6875 21.375 C-48.9875 21.375 -52.2875 21.375 -55.6875 21.375 C-52.85657478 10.88392419 -47.15489945 2.92730945 -37.6875 -2.625 C-25.87818156 -8.66697688 -11.05412689 -6.69947084 0 0 Z " fill="#FC6D3E" transform="translate(177.6875,15.625)"/>
</svg>
